Coordinates
version=1
nRows=54
nColumns=12
inDegrees=yes

Units are S.I. units (second, meters, Newtons, ...)
Angles are in degrees

endheader
time	SC_y	SC_z	SC_x	AC_y	AC_z	AC_x	GH_y	GH_z	GH_yy	EL_x	PS_y
       0.0              -46.32          5.339          61.47          55.59         -8.311          19.46         -65.73         -15.92          104.4           85.8          119.0
   0.01523              -46.31          5.338          61.47          55.58         -8.312          19.45         -65.74         -15.92          104.4           85.8          119.0
   0.03045              -46.31          5.338          61.46          55.58         -8.313          19.45         -65.76         -15.92          104.3           85.8          118.9
   0.04568               -46.3          5.337          61.45          55.58         -8.314          19.45         -65.77         -15.91          104.3           85.8          118.9
    0.0609               -46.3          5.336          61.44          55.58         -8.315          19.44         -65.79         -15.91          104.3           85.8          118.9
   0.07613              -46.29          5.335          61.43          55.58         -8.316          19.44          -65.8          -15.9          104.2           85.8          118.9
   0.09135              -46.28          5.335          61.42          55.58         -8.317          19.43         -65.82          -15.9          104.2           85.8          118.9
    0.1066              -46.27          5.334           61.4          55.57         -8.318          19.43         -65.84         -15.89          104.2           85.8          118.9
    0.1218              -46.27          5.333          61.39          55.57         -8.319          19.42         -65.86         -15.88          104.1           85.8          118.9
     0.137              -46.26          5.332          61.38          55.57          -8.32          19.42         -65.88         -15.88          104.1           85.8          118.8
    0.1523              -46.25          5.331          61.36          55.57         -8.321          19.41          -65.9         -15.87          104.0           85.8          118.8
    0.1675              -46.24           5.33          61.35          55.56         -8.323           19.4         -65.92         -15.86          104.0          85.79          118.8
    0.1827              -46.23          5.328          61.33          55.56         -8.324           19.4         -65.95         -15.86          103.9          85.79          118.8
    0.1979              -46.22          5.327          61.31          55.56         -8.326          19.39         -65.98         -15.85          103.9          85.79          118.8
    0.2132               -46.2          5.326          61.29          55.55         -8.328          19.38         -66.01         -15.84          103.8          85.79          118.7
    0.2284              -46.19          5.324          61.27          55.55          -8.33          19.37         -66.04         -15.83          103.7          85.79          118.7
    0.2436              -46.17          5.322          61.24          55.54         -8.332          19.36         -66.08         -15.82          103.6          85.79          118.7
    0.2588              -46.16           5.32          61.22          55.54         -8.334          19.35         -66.12          -15.8          103.5          85.79          118.6
    0.2741              -46.14          5.318          61.19          55.53         -8.337          19.34         -66.16         -15.79          103.5          85.79          118.6
    0.2893              -46.12          5.316          61.16          55.53         -8.339          19.33         -66.21         -15.77          103.3          85.79          118.6
    0.3045               -46.1          5.314          61.12          55.52         -8.342          19.32         -66.26         -15.76          103.2          85.79          118.5
    0.3197              -46.08          5.311          61.09          55.52         -8.346           19.3         -66.31         -15.74          103.1          85.79          118.5
     0.335              -46.05          5.308          61.05          55.51         -8.349          19.28         -66.38         -15.72          103.0          85.79          118.4
    0.3502              -46.02          5.305           61.0           55.5         -8.354          19.26         -66.45          -15.7          102.8          85.79          118.4
    0.3654              -45.99          5.301          60.95          55.49         -8.358          19.24         -66.52         -15.68          102.6          85.78          118.3
    0.3806              -45.96          5.297          60.89          55.48         -8.363          19.22         -66.61         -15.65          102.5          85.78          118.2
    0.3959              -45.92          5.292          60.83          55.47         -8.369          19.19          -66.7         -15.62          102.2          85.78          118.2
    0.4111              -45.87          5.287          60.75          55.46         -8.375          19.17         -66.81         -15.58          102.0          85.78          118.1
    0.4263              -45.82          5.281          60.67          55.44         -8.382          19.13         -66.93         -15.55          101.7          85.78          118.0
    0.4415              -45.77          5.275          60.58          55.42         -8.391           19.1         -67.07          -15.5          101.4          85.77          117.9
    0.4568               -45.7          5.267          60.48          55.41           -8.4          19.05         -67.23         -15.45          101.1          85.77          117.7
     0.472              -45.63          5.258          60.35          55.38         -8.411           19.0         -67.41          -15.4          100.7          85.77          117.6
    0.4872              -45.54          5.248          60.21          55.36         -8.423          18.95         -67.62         -15.33          100.2          85.76          117.4
    0.5024              -45.44          5.237          60.05          55.33         -8.437          18.88         -67.86         -15.25          99.67          85.76          117.2
    0.5177              -45.32          5.223          59.86          55.29         -8.454          18.81         -68.15         -15.16          99.04          85.75          117.0
    0.5329              -45.18          5.207          59.64          55.25         -8.474          18.72         -68.48         -15.06           98.3          85.75          116.7
    0.5481              -45.02          5.188          59.37          55.21         -8.497          18.61         -68.88         -14.93          97.42          85.74          116.4
    0.5633              -44.82          5.165          59.05          55.15         -8.526          18.48         -69.36         -14.78          96.36          85.73          116.0
    0.5786              -44.58          5.137          58.67          55.08          -8.56          18.32         -69.94          -14.6          95.07          85.72          115.5
    0.5938              -44.29          5.103           58.2          54.99         -8.602          18.13         -70.65         -14.38          93.51          85.71          114.9
     0.609              -43.93          5.061          57.61          54.89         -8.653           17.9         -71.52         -14.11          91.58          85.69          114.2
    0.6242              -43.49          5.009          56.89          54.76         -8.717           17.6         -72.61         -13.76          89.16          85.68          113.3
    0.6395              -42.92          4.944          55.97          54.59         -8.798          17.24         -73.98         -13.33          86.13          85.65          112.2
    0.6547               -42.2           4.86          54.81          54.38         -8.901          16.77         -75.72         -12.79          82.27          85.62          110.7
    0.6699              -41.28          4.753          53.33          54.11         -9.032          16.17         -77.95         -12.09          77.33          85.58          108.9
    0.6851              -40.11          4.616          51.42          53.76         -9.201           15.4         -80.81         -11.19          70.99          85.53          106.6
    0.7004               -38.6          4.441          48.98          53.32         -9.417          14.41         -84.46         -10.04          62.89          85.46          103.5
    0.7156              -36.71          4.221          45.91          52.77         -9.688          13.17         -89.05         -8.596          52.71          85.38          99.76
    0.7308               -34.4          3.952          42.18          52.09         -10.02          11.67         -94.65         -6.837           40.3          85.28          95.16
     0.746              -31.73          3.641          37.85          51.31          -10.4          9.918         -101.1         -4.798          25.92          85.17          89.81
    0.7613              -28.83          3.304          33.16          50.46         -10.82          8.025         -108.2          -2.59          10.34          85.04          84.03
    0.7765              -25.94          2.967          28.47          49.61         -11.23          6.132         -115.2        -0.3824         -5.233          84.91          78.24
    0.7917              -23.26          2.656          24.14          48.83         -11.61          4.384         -121.7          1.657         -19.62           84.8           72.9
    0.8069              -20.96          2.388           20.4          48.15         -11.94          2.875         -127.3          3.416         -32.02           84.7          68.29
